. 
  
http://www.torrenting.com/        :     Greatest Movie Tracker on The Net!!!
 
http://www.Torrenting.com          :     Once & For all ;)


               www . Torrenting . Com 

(((((((((((((= Enjoy No RAR releases =))))))))))))))))))))


...................................NFO:....................................

.[img]http://img542.imageshack.us/img542/8839/vanishin.jpg[/img]

[color=blue][size=5][b]Vanishing.On.7th.Street.2011.BDRip.XVID.AC3.HQ.Hive-CM8[/b][/size][/color]


[b]Thx Hive

CM8 Doing It Right The First Time :D

Source Bluray

Video: 720x304 @bitrate 1850 2pass
Audio: DTS to AC3 5.1 @448
Sample: yes included
Subs: yes english in srt /subs[/b]


[url]http://www.imdb.com/title/tt1452628/[/url]


General
Complete name                    : Vanishing.On.7th.Street.2011.BDRip.XVID.AC3.HQ.Hive-CM8.avi
Format                           : AVI
Format/Info                      : Audio Video Interleave
File size                        : 1.47 GiB
Duration                         : 1h 31mn
Overall bit rate                 : 2 312 Kbps
Writing application              : Nandub v1.0rc2
Writing library                  : Nandub build 1853/release

Video
ID                               : 0
Format                           : MPEG-4 Visual
Format profile                   : Advanced Simple@L5
Format settings, BVOP            : 1
Format settings, QPel            : Yes
Format settings, GMC             : No warppoints
Format settings, Matrix          : Default (H.263)
Muxing mode                      : Packed bitstream
Codec ID                         : XVID
Codec ID/Hint                    : XviD
Duration                         : 1h 31mn
Bit rate                         : 1 854 Kbps
Width                            : 720 pixels
Height                           : 304 pixels
Display aspect ratio             : 2.40:1
Frame rate                       : 23.976 fps
Color space                      : YUV
Chroma subsampling               : 4:2:0
Bit depth                        : 8 bits
Scan type                        : Progressive
Compression mode                 : Lossy
Bits/(Pixel*Frame)               : 0.353
Stream size                      : 1.18 GiB (80%)
Writing library                  : XviD 1.2.1 (UTC 2008-12-04)

Audio
ID                               : 1
Format                           : AC-3
Format/Info                      : Audio Coding 3
Mode extension                   : CM (complete main)
Codec ID                         : 2000
Duration                         : 1h 31mn
Bit rate mode                    : Constant
Bit rate                         : 448 Kbps
Channel(s)                       : 6 channels
Channel positions                : Front: L C R, Side: L R, LFE
Sampling rate                    : 48.0 KHz
Bit depth                        : 16 bits
Compression mode                 : Lossy
Stream size                      : 292 MiB (19%)
Alignment                        : Split accross interleaves
Interleave, duration             : 42 ms (1.00 video frame)
Interleave, preload duration     : 500 ms



Hayden Christensen ... 	Luke
John Leguizamo	... 	Paul
Thandie Newton	... 	Rosemary
Jacob Latimore	... 	James
Taylor Groothuis ... 	Briana
Jordan Trovillion ... 	Concession Girl
Arthur Cartwright ... 	Security Guard


When a massive power outage plunges the city of Detroit into total darkness, 
a disparate group of individuals find themselves alone. The entire city's 
population has vanished into thin air, leaving behind heaps of empty clothing, 
abandoned cars and lengthening shadows.
 


[img]http://img803.imageshack.us/img803/9767/99318033.png[/img]
[img]http://img196.imageshack.us/img196/923/vvaa.png[/img]
[img]http://img845.imageshack.us/img845/7163/vvavaa.png[/img]
[img]http://img42.imageshack.us/img42/1466/vvavavaa.png[/img]
[img]http://img146.imageshack.us/img146/3492/vvavavavaa.png[/img]
[img]http://img812.imageshack.us/img812/6771/vvavavavvaaa.png[/img]





Greetz

ViSiON,LUSi,SANTi,MAGNET,THC,T0XiCiNK,LKRG,IMAGiNE,WBZ,FLAWL3SS,NOVA
Vik,OneTwo,Rapeseed,D2U,SAFC,goldadvance,MEMORY100,KaN1vE,Unevano,Mr Hive
and all P2P groups 
Great Work Guys :D

CM8@hushmail.com